<svg xmlns="http://www.w3.org/2000/svg" width="600" height="418.696" viewBox="0 0 600 418.696"><defs><style>.a{fill:#f2f2f2;}.b{fill:#ff857a;}.c{fill:#3f3d56;}.d{fill:#ff6584;}.e{fill:#e6e6e6;}.f{fill:#2f2e41;}.g{fill:#ffb9b9;}.h{opacity:0.1;}</style></defs><g transform="translate(-0.007 0.001)"><path class="a" d="M223.009,543.369c-.431-.428-10.651-10.778-19.314-35.337-7.948-22.531-15.968-61.822-9.038-121.054,13.13-112.21-54.2-183.722-54.881-184.431l1.993-1.914c.173.18,17.484,18.377,32.885,50.323A247.309,247.309,0,0,1,197.4,387.3C184.294,499.318,224.55,541,224.958,541.412Z" transform="translate(-101.141 -153.988)"/><circle class="a" cx="17.955" cy="17.955" r="17.955" transform="translate(0.007 39.88)"/><circle class="a" cx="17.955" cy="17.955" r="17.955" transform="translate(70.743 84.43)"/><circle class="a" cx="17.955" cy="17.955" r="17.955" transform="translate(43.658 132.856)"/><circle class="b" cx="17.955" cy="17.955" r="17.955" transform="translate(94.103 156.171)"/><circle class="a" cx="17.955" cy="17.955" r="17.955" transform="translate(52.845 221.936)"/><path class="a" d="M291.962,717.132s-27.926-38.677,16.539-83.654Z" transform="translate(-164.384 -329.682)"/><path class="a" d="M206.5,760.2s-19.086-43.72-80.431-28.327Z" transform="translate(-95.575 -368.287)"/><path class="a" d="M918.792,587.369c.431-.428,10.651-10.778,19.314-35.337,7.948-22.531,15.968-61.822,9.038-121.054-13.13-112.21,54.2-183.722,54.88-184.431l-1.993-1.914c-.173.18-17.484,18.377-32.885,50.323A247.309,247.309,0,0,0,944.4,431.3c13.107,112.018-27.149,153.7-27.557,154.111Z" transform="translate(-440.646 -171.848)"/><circle class="a" cx="17.955" cy="17.955" r="17.955" transform="translate(564.097 66.02)"/><circle class="a" cx="17.955" cy="17.955" r="17.955" transform="translate(493.362 108.723)"/><circle class="a" cx="17.955" cy="17.955" r="17.955" transform="translate(520.447 157.148)"/><circle class="a" cx="17.955" cy="17.955" r="17.955" transform="translate(470.001 180.463)"/><circle class="a" cx="17.955" cy="17.955" r="17.955" transform="translate(511.26 246.229)"/><path class="a" d="M890.823,761.132s27.926-38.677-16.539-83.654Z" transform="translate(-418.388 -347.542)"/><path class="a" d="M938.551,804.2s19.086-43.72,80.431-28.327Z" transform="translate(-449.458 -386.147)"/><path class="a" d="M652.792,587.369c.431-.428,10.651-10.778,19.314-35.337,7.948-22.531,15.968-61.822,9.038-121.054-13.13-112.21,54.2-183.722,54.881-184.431l-1.993-1.914c-.173.18-17.484,18.377-32.885,50.323A247.308,247.308,0,0,0,678.4,431.3c13.107,112.018-27.149,153.7-27.557,154.111Z" transform="translate(-323.885 -171.848)"/><circle class="a" cx="17.955" cy="17.955" r="17.955" transform="translate(412.541 66.02)"/><circle class="a" cx="17.955" cy="17.955" r="17.955" transform="translate(344.702 108.723)"/><circle class="a" cx="17.955" cy="17.955" r="17.955" transform="translate(370.678 157.148)"/><circle class="a" cx="17.955" cy="17.955" r="17.955" transform="translate(318.444 180.463)"/><circle class="a" cx="17.955" cy="17.955" r="17.955" transform="translate(361.867 246.229)"/><path class="a" d="M624.823,761.132s27.926-38.677-16.539-83.654Z" transform="translate(-304.06 -347.542)"/><path class="a" d="M672.551,804.2s19.086-43.72,80.431-28.327Z" transform="translate(-333.134 -386.147)"/><path class="c" d="M487.1,165.578V133.235a74.409,74.409,0,0,1-48.038-35.758h0a14.133,14.133,0,0,1-8.448,2.78H404.936A106.075,106.075,0,0,0,487.1,165.578Z" transform="translate(-217.49 -83.006)"/><path class="c" d="M511.382,121.494V90.425a17.3,17.3,0,0,0-17.306-17.306H469.142v3a14.209,14.209,0,0,1-4.4,10.295A72.657,72.657,0,0,0,511.382,121.494Z" transform="translate(-242.713 -73.119)"/><path class="c" d="M292.842,89.174H276.783c-7.869,0-14.247-5.94-14.246-13.264V73.119h-23.4c-9.56,0-17.308,7.212-17.306,16.107v358.38a15.533,15.533,0,0,0,5.064,11.389,17.953,17.953,0,0,0,12.242,4.705H395.477a18.085,18.085,0,0,0,2.133-.122c8.66-1,15.163-7.851,15.173-15.973V183.783C355.923,177.652,308.544,139.9,292.842,89.174Z" transform="translate(-134.449 -73.119)"/><path class="c" d="M378.463,102.159H344.516A140.5,140.5,0,0,0,462.58,202.007V169.32a107.928,107.928,0,0,1-84.117-67.161Z" transform="translate(-191.875 -84.906)"/><rect class="c" width="294.671" height="1.188" transform="translate(230.632 417.174)"/><circle class="a" cx="4.159" cy="4.159" r="4.159" transform="translate(121.821 60.002)"/><path class="a" d="M195.773,159.08h-1.082V158h-.211v1.082H193.4v.212h1.083v1.082h.211v-1.082h1.082Z" transform="translate(-78.498 -70.267)"/><path class="a" d="M318.773,68.08h-1.082V67h-.211V68.08H316.4v.212h1.083v1.082h.211V68.292h1.082Z" transform="translate(-135.708 -27.195)"/><path class="a" d="M213.773,231.08h-1.082V230h-.211v1.082H211.4v.211h1.083v1.082h.211v-1.082h1.082Z" transform="translate(-90.671 -102.288)"/><path class="a" d="M297.773,178.08h-1.082V177h-.211v1.082H295.4v.211h1.083v1.082h.211v-1.082h1.082Z" transform="translate(-126.7 -78.717)"/><path class="a" d="M417.773,211.08h-1.082V210h-.211v1.082H415.4v.212h1.083v1.082h.211v-1.082h1.082Z" transform="translate(-178.171 -93.393)"/><circle class="d" cx="2.376" cy="2.376" r="2.376" transform="translate(225.199 71.884)"/><path class="e" d="M328.924,291.917l-1.349.208c.422,2.7.755,5.454,1,8.181l1.361-.119C329.691,297.424,329.352,294.644,328.924,291.917Z" transform="translate(-183.189 -170.541)"/><path class="e" d="M322.743,264.577l-1.307.4c.79,2.614,1.5,5.293,2.1,7.961l1.337-.3C324.258,269.935,323.539,267.226,322.743,264.577Z" transform="translate(-180.565 -158.367)"/><path class="e" d="M312.877,238.357l-1.242.57c1.141,2.489,2.21,5.044,3.178,7.6l1.277-.481C315.111,243.46,314.036,240.87,312.877,238.357Z" transform="translate(-176.371 -146.69)"/><path class="e" d="M299.538,213.777l-1.153.731c1.467,2.305,2.875,4.693,4.182,7.088l1.2-.654C302.449,218.518,301.023,216.105,299.538,213.777Z" transform="translate(-170.694 -135.741)"/><path class="e" d="M282.955,191.247l-1.04.885c1.77,2.079,3.493,4.254,5.121,6.452l1.093-.814C286.49,195.548,284.749,193.35,282.955,191.247Z" transform="translate(-163.634 -121.068)"/><path class="e" d="M263.465,171.187l-.909,1.016c2.044,1.824,4.046,3.743,5.953,5.7l.98-.956C267.558,174.965,265.532,173.028,263.465,171.187Z" transform="translate(-150.978 -112.925)"/><path class="e" d="M241.442,153.967l-.766,1.129c2.269,1.527,4.515,3.155,6.672,4.836l.844-1.075C246,157.157,243.735,155.511,241.442,153.967Z" transform="translate(-142.096 -105.935)"/><path class="e" d="M221.836,142.007v1.545c1.42.743,2.828,1.521,4.206,2.317l.683-1.182Q224.319,143.3,221.836,142.007Z" transform="translate(-134.449 -101.081)"/><path class="e" d="M329.326,505.165c.222-1.328.424-2.685.6-4.031l1.354.18c-.181,1.361-.386,2.732-.609,4.076Z" transform="translate(-183.936 -263.542)"/><path class="e" d="M322.917,529.469l1.305.407c.819-2.64,1.56-5.345,2.2-8.039l-1.33-.315C324.458,524.187,323.73,526.858,322.917,529.469Z" transform="translate(-181.201 -272.775)"/><path class="e" d="M312.875,555.558l1.239.581c1.179-2.5,2.282-5.076,3.282-7.654l-1.275-.5C315.134,550.538,314.042,553.086,312.875,555.558Z" transform="translate(-176.903 -284.55)"/><path class="e" d="M299.364,580.141l1.146.744c1.511-2.317,2.96-4.719,4.31-7.135l-1.191-.668C302.3,575.471,300.858,577.845,299.364,580.141Z" transform="translate(-171.114 -295.708)"/><path class="e" d="M282.647,602.728l1.035.9c1.817-2.1,3.579-4.276,5.25-6.482l-1.094-.818C286.192,598.5,284.447,600.659,282.647,602.728Z" transform="translate(-163.949 -306.033)"/><path class="e" d="M263.072,622.895l.9,1.027c2.089-1.822,4.132-3.745,6.084-5.7l-.966-.968C267.16,619.189,265.135,621.085,263.072,622.895Z" transform="translate(-151.187 -315.319)"/><path class="e" d="M241.02,640.281l.755,1.143c2.307-1.523,4.6-3.147,6.8-4.819l-.826-1.091C245.567,637.173,243.3,638.778,241.02,640.281Z" transform="translate(-142.236 -323.409)"/><path class="e" d="M226.879,651.959c-1.652.933-3.339,1.836-5.044,2.691v-1.533c1.473-.748,2.935-1.539,4.367-2.341Z" transform="translate(-134.449 -330.098)"/><path class="e" d="M330,320.205l1.366-.025c.025,1.379.027,2.765.006,4.121l-1.366-.021C330.027,322.94,330.025,321.569,330,320.205Z" transform="translate(-184.22 -183.033)"/><path class="f" d="M426.028,218.741h0c15.462,0,28,13.911,28,31.07v21.8H447.32l-3.882-8.078.97,8.078h-43.1l-3.529-7.343.882,7.343h-4.852V254.494C393.811,234.748,408.235,218.741,426.028,218.741Z" transform="translate(-212.353 -138.604)"/><path class="g" d="M363.912,481.635s-7.129,20.793,2.376,20.2,8.911-22.576,8.911-22.576Z" transform="translate(-197.798 -254.492)"/><path class="b" d="M375.27,320.259h-6.535l-5.941,57.627s-6.535.594-3.565,7.129,2.97,4.159,2.376,8.911-1.188,7.129-1.188,7.723,2.971,0,0,4.159-4.753,5.941-4.753,8.317,2.971,8.317,2.971,8.317,14.258-9.506,15.446-1.782l7.723-40.4,2.376-28.517Z" transform="translate(-195.521 -185.801)"/><path class="b" d="M413.423,260.14h4.753L415.8,325.49l-11.882-24.952Z" transform="translate(-173.428 -117.356)"/><path class="h" d="M413.423,260.14h4.753L415.8,325.49l-11.882-24.952Z" transform="translate(-173.428 -117.356)"/><path class="b" d="M427.576,608.661s47.491-20.767,52.46-52.938a35.6,35.6,0,0,0,.414-4.832c.594-34.909-7.723-42.632-7.723-42.632l-54.063,8.317Z" transform="translate(-223.097 -271.407)"/><path class="h" d="M427.576,608.661s47.491-20.767,52.46-52.938a35.6,35.6,0,0,0,.414-4.832c.594-34.909-7.723-42.632-7.723-42.632l-54.063,8.317Z" transform="translate(-223.097 -271.407)"/><path class="g" d="M463.665,525.173l11.882,54.657,5.347,18.417s2.376,15.446,7.129,26.14,10.694,32.081,10.694,32.081H510l-11.288-67.727s-4.159-61.786-8.911-66.539S463.665,525.173,463.665,525.173Z" transform="translate(-242.243 -283.888)"/><circle class="g" cx="18.417" cy="18.417" r="18.417" transform="translate(198.504 90.331)"/><path class="g" d="M423.113,284.259s2.376,14.852-11.288,19.011,29.111,64.162,29.111,64.162,19.011-52.874,14.258-57.627c0,0-17.229-2.376-15.446-12.476s2.971-11.288,2.971-11.288Z" transform="translate(-218.763 -168.836)"/><path class="c" d="M369.917,426.49,410.909,415.8,388.928,361.14Z" transform="translate(-159.228 -162.92)"/><path class="f" d="M531.267,741.259l-17.229,1.188s-2.97,13.07,1.782,21.387c2.5,4.367,4.172,11.026,5.2,16.366a14.546,14.546,0,0,0,13.752,11.921c3.748.093,6.949-1.185,7.187-5.712.594-11.288-9.505-32.081-9.505-32.081Z" transform="translate(-263.224 -373.431)"/><path class="f" d="M380.562,769.289H364.325a75.4,75.4,0,0,1,2.644-11.609v-.006c.636-2.091,1.123-3.416,1.123-3.416l11.882,7.129.291,3.969Z" transform="translate(-199.104 -378.708)"/><path class="b" d="M422.1,367.455s-10.233-40.325-25.019-53.432c0,0-23.1-2.413-24.291,4.122l16.041,46.339a9.12,9.12,0,0,0,.594,11.288L365.665,568.258s2.97,2.971,1.782,6.535,2.97,12.476,2.97,12.476,10.1-1.782,19.011,0,27.328-10.694,27.328-10.694l14.852-166.94s23.764,32.675,27.328,67.133V439.934s-3.565-7.129-2.376-11.288-2.971-12.476-2.971-12.476l-3.565-12.476-11.882-35.646s8.317-11.288,5.941-24.358l2.97-18.417s-16.341-8.847-19.458-6.8C427.6,318.474,436.362,343.691,422.1,367.455Z" transform="translate(-200.674 -199.837)"/><path class="f" d="M416.092,226.942a14.683,14.683,0,0,1,11.585-5.912h.55c10.6,0,19.189,9.59,19.189,21.419h-3.551l-.573-4.365-.841,4.365H421.39l-1.764-3.693.441,3.693h-4.143q-2.9,14.4,8.334,28.805H417.2l-3.529-7.386.882,7.386H401.1l-2.647-16.988C398.451,241.545,405.843,230.756,416.092,226.942Z" transform="translate(-214.193 -139.591)"/><path class="b" d="M805.279,745.1c-5.309,19.627-23.5,31.782-23.5,31.782s-9.578-19.666-4.268-39.293,23.5-31.782,23.5-31.782S810.589,725.472,805.279,745.1Z" transform="translate(-376.27 -359.041)"/><path class="b" d="M742.946,745.1c5.309,19.627,23.5,31.782,23.5,31.782s9.578-19.666,4.268-39.293-23.5-31.782-23.5-31.782S737.637,725.472,742.946,745.1Z" transform="translate(-361.404 -359.041)"/><path class="c" d="M732.3,754.341c14.569,14.182,16.349,35.984,16.349,35.984s-21.842-1.193-36.411-15.375-16.349-35.984-16.349-35.984S717.727,740.158,732.3,754.341Z" transform="translate(-342.428 -372.5)"/><path class="c" d="M801.042,754.341c-14.569,14.182-16.349,35.984-16.349,35.984s21.842-1.193,36.411-15.375,16.349-35.984,16.349-35.984S815.611,740.158,801.042,754.341Z" transform="translate(-380.7 -372.5)"/></g></svg>