<svg xmlns="http://www.w3.org/2000/svg" width="600" height="416.521" viewBox="0 0 600 416.521"><defs><style>.a{fill:#ff6584;}.b{fill:#f2f2f2;}.c{fill:#3f3d56;}.d{fill:#2f2e41;}.e{fill:#fff;}.f{fill:#ff857a;}</style></defs><circle class="a" cx="34.268" cy="34.268" r="34.268" transform="translate(79.561 20.882)"/><path class="b" d="M377.374,244.76c0,80.856-48.068,109.088-107.362,109.088S162.649,325.616,162.649,244.76,270.011,61.042,270.011,61.042,377.374,163.9,377.374,244.76Z" transform="translate(-96.82 -61.042)"/><path class="c" d="M278.716,280.438l1.1-67.669,45.76-83.717-45.588,73.1.494-30.427,31.538-60.568-31.407,52.516h0l.889-54.724,33.772-48.22-33.632,39.614L282.2,0l-3.491,132.838.287-5.48L244.658,74.8l33.785,63.076L275.244,199l-.1-1.622-39.583-55.308L275.028,203.1l-.4,7.643-.072.115.033.628-8.117,155.06h10.845l1.3-80.092,39.366-60.889Z" transform="translate(-109.436 0)"/><path class="b" d="M1007.8,335.534c0,66.185-39.346,89.294-87.881,89.294s-87.881-23.109-87.881-89.294,87.881-150.382,87.881-150.382S1007.8,269.35,1007.8,335.534Z" transform="translate(-407.795 -118.7)"/><path class="c" d="M919.835,353.662l.9-55.39,37.457-68.526-37.316,59.837.4-24.906L947.1,215.1l-25.708,42.987h0l.728-44.794,27.643-39.47L922.23,206.247l.455-82.137-2.858,108.734.235-4.485-28.106-43.02,27.655,51.631L916.993,287l-.078-1.328-32.4-45.272,32.3,49.963-.328,6.257-.058.094.027.513-6.644,126.924h8.877l1.065-65.559,32.223-49.841Z" transform="translate(-410.918 -57.658)"/><ellipse class="c" cx="296.946" cy="15.01" rx="296.946" ry="15.01" transform="translate(0 349.339)"/><ellipse class="c" cx="50.86" cy="2.571" rx="50.86" ry="2.571" transform="translate(426.983 386.579)"/><ellipse class="c" cx="50.86" cy="2.571" rx="50.86" ry="2.571" transform="translate(242.942 411.378)"/><ellipse class="c" cx="116.196" cy="5.874" rx="116.196" ry="5.874" transform="translate(37.978 387.282)"/><circle class="d" cx="42.299" cy="42.299" r="42.299" transform="translate(9.683 260.899)"/><rect class="d" width="12.85" height="23.024" transform="translate(32.317 336.165) rotate(0.675)"/><rect class="d" width="12.85" height="23.024" transform="translate(58.016 336.468) rotate(0.675)"/><ellipse class="d" cx="4.016" cy="10.709" rx="4.016" ry="10.709" transform="translate(31.994 363.47) rotate(-89.325)"/><ellipse class="d" cx="4.016" cy="10.709" rx="4.016" ry="10.709" transform="translate(57.699 363.237) rotate(-89.325)"/><circle class="e" cx="14.457" cy="14.457" r="14.457" transform="translate(38.722 278.047)"/><circle class="c" cx="4.819" cy="4.819" r="4.819" transform="translate(48.36 287.684)"/><path class="f" d="M60.54,522.595C57.3,507.26,68.4,491.933,85.33,488.363s33.271,5.966,36.506,21.3-8.02,20.844-24.946,24.415S63.775,537.93,60.54,522.595Z" transform="translate(-49.123 -259.214)"/><path class="f" d="M189.348,613.248c0,29.489-17.53,39.786-39.156,39.786q-.751,0-1.5-.017c-1-.021-1.994-.069-2.975-.136-19.517-1.381-34.681-12.207-34.681-39.633,0-28.382,36.269-64.2,38.994-66.847l0,0,.157-.153S189.348,583.758,189.348,613.248Z" transform="translate(-72.843 -286.452)"/><path class="c" d="M167.846,648.522l14.321-20.011L167.81,650.72l-.038,2.3c-1-.021-1.994-.069-2.975-.136l1.544-29.5-.012-.229.026-.043.146-2.786-14.393-22.263,14.438,20.173.033.592,1.167-22.292-12.322-23.005L167.9,592.617l1.214-46.215,0-.157v.153l-.2,36.444,12.267-14.448L168.863,585.98l-.324,19.958,11.454-19.155-11.5,22.091-.181,11.1,16.628-26.66-16.69,30.532Z" transform="translate(-91.923 -286.452)"/><circle class="d" cx="42.299" cy="42.299" r="42.299" transform="translate(339.188 260.442)"/><rect class="d" width="12.85" height="23.024" transform="matrix(0.956, -0.294, 0.294, 0.956, 372.813, 340.138)"/><rect class="d" width="12.85" height="23.024" transform="matrix(0.956, -0.294, 0.294, 0.956, 397.38, 332.588)"/><ellipse class="d" cx="10.709" cy="4.016" rx="10.709" ry="4.016" transform="matrix(0.956, -0.294, 0.294, 0.956, 378.475, 358.563)"/><ellipse class="d" cx="10.709" cy="4.016" rx="10.709" ry="4.016" transform="matrix(0.956, -0.294, 0.294, 0.956, 402.885, 350.501)"/><circle class="e" cx="14.457" cy="14.457" r="14.457" transform="translate(364.908 277.734)"/><circle class="c" cx="4.819" cy="4.819" r="4.819" transform="translate(374.546 287.371)"/><path class="f" d="M654.39,540.015c-7.758-13.618-1.862-31.6,13.168-40.162s33.505-4.466,41.263,9.152-1.28,22.3-16.311,30.86S662.148,553.632,654.39,540.015Z" transform="translate(-323.68 -262.821)"/><path class="f" d="M548.923,607.932c0,27.07-16.092,36.522-35.943,36.522q-.69,0-1.377-.015c-.92-.02-1.831-.063-2.731-.125-17.916-1.268-31.835-11.206-31.835-36.381,0-26.054,33.294-58.929,35.795-61.362l0,0,.145-.14S548.923,580.862,548.923,607.932Z" transform="translate(-242.875 -286.536)"/><path class="c" d="M529.185,640.313l13.146-18.369L529.152,642.33l-.035,2.109c-.92-.02-1.831-.064-2.731-.125l1.417-27.083-.011-.21.024-.039.134-2.558-13.212-20.437L527.992,612.5l.031.543,1.071-20.463-11.311-21.118,11.449,17.526,1.115-42.424,0-.145v.14l-.186,33.454,11.261-13.262L530.118,582.9l-.3,18.321,10.514-17.583-10.558,20.279L529.61,614.1l15.264-24.473-15.321,28.027Z" transform="translate(-260.39 -286.536)"/><path class="f" d="M807.348,624.248c0,29.489-17.53,39.786-39.156,39.786q-.751,0-1.5-.017c-1-.021-1.994-.069-2.975-.136-19.517-1.381-34.681-12.207-34.681-39.633,0-28.382,36.269-64.2,38.994-66.847l0,0,.157-.153S807.348,594.758,807.348,624.248Z" transform="translate(-359.946 -291.562)"/><path class="c" d="M785.846,659.522l14.321-20.011L785.811,661.72l-.038,2.3c-1-.021-1.994-.069-2.975-.136l1.544-29.5-.012-.229.026-.043.146-2.786-14.393-22.263,14.438,20.173.033.592,1.167-22.292-12.322-23.005L785.9,603.617l1.214-46.215,0-.157v.153l-.2,36.444,12.267-14.448L786.863,596.98l-.324,19.958,11.454-19.155-11.5,22.091-.181,11.1,16.628-26.66-16.69,30.532Z" transform="translate(-379.027 -291.562)"/><ellipse class="d" cx="6.639" cy="21.15" rx="6.639" ry="21.15" transform="translate(343.111 315.934) rotate(-64.626)"/><ellipse class="d" cx="6.639" cy="21.15" rx="6.639" ry="21.15" transform="translate(16.886 314.615) rotate(-68.159)"/></svg>