<svg xmlns="http://www.w3.org/2000/svg" width="600" height="470.007" viewBox="0 0 600 470.007"><defs><style>.a,.k{fill:#f2f2f2;}.b,.j{fill:#ff857a;}.c{fill:#2f2e41;}.d{fill:#ffb9b9;}.e{opacity:0.05;}.f{fill:#fff;}.f,.j{opacity:0.3;}.g{fill:#fbbebe;}.h{fill:#3f3d56;}.i{opacity:0.1;}.k{fill-rule:evenodd;}</style></defs><circle class="a" cx="225.383" cy="225.383" r="225.383" transform="translate(18.947)"/><path class="b" d="M315.142,229.21l-4.667,37.739c5.728,11.211,11.8,23.956,17.582,37.7l10.99-56.907.555.507a113.1,113.1,0,0,0-25.025-19.5Z" transform="translate(-193.825 -145.779)"/><path class="b" d="M297.371,261.167l4.521-36.557c-9.6-5.242-19.307-8.107-28.637-8.055-.485,0-.965.019-1.444.038C273.685,219.457,284.571,236.342,297.371,261.167Z" transform="translate(-181.728 -141.962)"/><path class="b" d="M402.407,360.682l.5.679q-2.505-7.618-5.522-14.926l-28.343,63.493-.242-.3q1.076,4.686,1.982,9.281Z" transform="translate(-212.073 -182.596)"/><path class="b" d="M373.382,290.81l.536.6a177.8,177.8,0,0,0-25.344-33.454l-11.2,57.991q8.047,19.365,13.868,37.805Z" transform="translate(-202.24 -154.916)"/><path class="b" d="M206.856,301.443a148.463,148.463,0,0,0,.788,29.912l98.85,27.757c-3.581-10.6-7.435-20.622-11.27-29.815l-88.249-27.018Z" transform="translate(-161.278 -168.52)"/><path class="b" d="M210.024,356.846l-.135-.837,100.3,26.641q-1.222-3.929-2.5-7.77l-99.215-27.86-.129-.837Q209.006,351.427,210.024,356.846Z" transform="translate(-161.87 -182.517)"/><path class="b" d="M393.282,332.765l.519.646a212.344,212.344,0,0,0-12.779-25.61l-22.439,63.8q3.812,12.318,6.592,24.131Z" transform="translate(-208.876 -170.509)"/><path class="b" d="M376.552,478c1.024,18.217-.3,35.045-3.978,50.3,7.792-11.153,38.135-57.692,38.128-105.949Z" transform="translate(-213.253 -206.346)"/><path class="b" d="M229.085,417.935a205.4,205.4,0,0,0,14.01,23.659l-.094-.92,87.388,34.284a255.364,255.364,0,0,0-3.83-30.364Z" transform="translate(-168.361 -204.965)"/><path class="b" d="M281.186,261.672c-13.855-26.855-25.431-44.315-25.6-44.565l.32-.46c-14.16.741-25.382,8.351-32.992,20.855Z" transform="translate(-166.431 -141.991)"/><path class="b" d="M372.348,428.533c.18.951.366,1.906.535,2.851a253.7,253.7,0,0,1,3.431,27.393l33.826-55.125.477.678a100.587,100.587,0,0,0-3.417-25.155q-1.317-4.831-2.852-9.561Z" transform="translate(-213.182 -189.847)"/><path class="b" d="M294.674,310.716c-5.73-13.587-11.73-26.18-17.394-37.259l-59.607-24.725-.075-.819c-5.633,9.529-9.211,21.811-10.454,36.006Z" transform="translate(-161.497 -151.773)"/><path class="b" d="M337.16,487.781l-86.749-34.033c31.127,45.368,78.914,84.291,81.967,86.757C336.908,523.667,338.155,505.782,337.16,487.781Z" transform="translate(-175.033 -216.169)"/><path class="b" d="M320.546,425.683l.03-.056a344.622,344.622,0,0,0-9.013-35.986L211.021,362.936q1.411,7.335,3.475,14.934a123.488,123.488,0,0,0,8.019,21Z" transform="translate(-162.71 -187.758)"/><path class="b" d="M546.539,460.621l-27.665,26.09c-2.739,12.288-6.194,25.974-10.506,40.253l44.761-36.819.1.745a113.1,113.1,0,0,0-6.839-30.978Z" transform="translate(-255.737 -218.097)"/><path class="b" d="M524.351,472.721l26.8-25.272c-4.054-10.163-9.7-18.558-16.918-24.469-.376-.307-.755-.6-1.136-.892C532.712,425.49,530.327,445.438,524.351,472.721Z" transform="translate(-260.737 -206.265)"/><path class="b" d="M525.418,624.648l-.046.844q2.93-7.465,5.267-15.019L468.313,641.3l.005-.386q-2.16,4.3-4.393,8.413Z" transform="translate(-241.833 -265.202)"/><path class="b" d="M545.025,547.272l.027.807a177.8,177.8,0,0,0,1.818-41.93l-45.614,37.52q-6.153,20.047-13.431,37.963Z" transform="translate(-249.309 -232.563)"/><path class="b" d="M424.677,446.116a148.461,148.461,0,0,0-18.471,23.541l58.429,84.426c4-10.445,7.426-20.625,10.337-30.152l-50.736-77.1Z" transform="translate(-223.774 -213.782)"/><path class="b" d="M397.539,490.687l.43-.73,60.255,84.489q1.565-3.806,3.028-7.58l-58.645-84.738.434-.727Q400.212,485.865,397.539,490.687Z" transform="translate(-221.063 -224.821)"/><path class="b" d="M533.325,595.542l-.012.829a212.3,212.3,0,0,0,6.492-27.875L481.832,603.32q-4.921,11.919-10.314,22.79Z" transform="translate(-244.208 -252.069)"/><path class="b" d="M420.261,701.287c-10.83,14.683-22.585,26.8-35.143,36.2,13.115-3.62,66.168-20.111,96.941-57.282Z" transform="translate(-217.177 -287.018)"/><path class="b" d="M373.8,549.9a205.408,205.408,0,0,0-4.3,27.158l.514-.769,45.439,82.143A255.365,255.365,0,0,0,431.874,632.6Z" transform="translate(-212.292 -246.25)"/><path class="b" d="M509.5,468.833c6.458-29.52,8.678-50.351,8.709-50.65l.54-.15c-11.379-8.461-24.875-9.757-38.712-4.98Z" transform="translate(-246.873 -202.576)"/><path class="b" d="M454.839,658.726c-.468.848-.934,1.7-1.406,2.537A253.7,253.7,0,0,1,438.6,684.549l61.212-20.882-.065.826a100.586,100.586,0,0,0,13.413-21.554q2.067-4.561,3.9-9.183Z" transform="translate(-233.91 -272.486)"/><path class="b" d="M484.207,512.186c4.253-14.12,7.663-27.645,10.368-39.791l-30.138-57.061.465-.679c-10.416,3.746-21.006,10.924-31.017,21.063Z" transform="translate(-232.434 -203.939)"/><path class="b" d="M413.9,672.621,368.8,591.08c-4.963,54.8,7.016,115.253,7.8,119.1C390.822,700.1,403.19,687.121,413.9,672.621Z" transform="translate(-211.696 -259.134)"/><path class="b" d="M434.857,614.2l.059-.024a344.651,344.651,0,0,0,16.01-33.464l-60.4-84.7q-3.591,6.55-6.849,13.719a123.493,123.493,0,0,0-7.219,21.29Z" transform="translate(-214.467 -229.392)"/><path class="b" d="M227.212,462.717l7.227,37.334c8.913,8.891,18.623,19.137,28.375,30.422l-7.138-57.517.685.31a113.1,113.1,0,0,0-29.826-10.807Z" transform="translate(-167.563 -218.895)"/><path class="b" d="M218.417,497.842l-7-36.164c-10.754-2.017-20.867-1.742-29.724,1.191-.461.153-.912.317-1.361.482C183,465.5,198.572,478.19,218.417,497.842Z" transform="translate(-153.108 -218.243)"/><path class="b" d="M357.957,557.333l.688.49q-4.737-6.471-9.866-12.488l-7.329,69.145-.323-.212q2.472,4.124,4.754,8.214Z" transform="translate(-203.414 -244.823)"/><path class="b" d="M304.713,502.3l.7.41a177.8,177.8,0,0,0-34.443-23.982l7.273,58.613q13.638,15.929,24.875,31.667Z" transform="translate(-181.464 -223.985)"/><path class="b" d="M144.958,565.028a148.46,148.46,0,0,0,10,28.2l102.589-4.156c-6.681-8.97-13.446-17.314-19.934-24.872l-92.279,1.582Z" transform="translate(-142.041 -250.726)"/><path class="b" d="M164.916,615.617l-.387-.754L268.149,609.2q-2.377-3.359-4.782-6.616L160.4,606.754l-.381-.756Q162.273,610.778,164.916,615.617Z" transform="translate(-146.753 -262.733)"/><path class="b" d="M340.736,534.469l.693.453a212.326,212.326,0,0,0-20.069-20.406l-1.62,67.61q7.433,10.537,13.728,20.911Z" transform="translate(-196.723 -235.181)"/><path class="b" d="M370.294,675.556c6.6,17.008,10.545,33.422,11.763,49.062,3.963-13.015,18.435-66.654,3.512-112.545Z" transform="translate(-212.539 -265.702)"/><path class="b" d="M201.927,667.2a205.416,205.416,0,0,0,20.637,18.17l-.374-.846,93.706,5.594a255.345,255.345,0,0,0-13.027-27.693Z" transform="translate(-159.865 -281.457)"/><path class="b" d="M206.111,500.02c-21.477-21.257-37.883-34.284-38.119-34.471l.162-.536c-13.238,5.081-21.558,15.787-24.93,30.032Z" transform="translate(-141.499 -219.694)"/><path class="b" d="M349.742,630.673c.465.849.937,1.7,1.39,2.546a253.714,253.714,0,0,1,11.73,24.991l15.13-62.881.663.5a100.579,100.579,0,0,0-11.025-22.867q-2.745-4.188-5.668-8.212Z" transform="translate(-206.109 -250.896)"/><path class="b" d="M234.982,545.666c-9.649-11.151-19.248-21.272-28.059-30.059l-64.33-5.09-.325-.756c-2.412,10.8-2.019,23.591,1.187,37.474Z" transform="translate(-140.713 -233.694)"/><path class="b" d="M326.3,702.4l-93.02-5.553c43.626,33.526,101.1,55.772,104.77,57.173C337.151,736.6,332.809,719.211,326.3,702.4Z" transform="translate(-169.673 -292.224)"/><path class="b" d="M291.3,645.891l.012-.062a344.631,344.631,0,0,0-19.694-31.437L167.747,620.07q3.61,6.539,7.921,13.129a123.486,123.486,0,0,0,14.118,17.494Z" transform="translate(-149.171 -266.428)"/><path class="c" d="M242.286,780.32s145.675-57.72,321.583,0" transform="translate(-172.491 -310.314)"/><path class="d" d="M396.373,718.236a45.872,45.872,0,0,0,.572,4.608s12.536,8.524,13.539-1c.652-6.208-.822-9.011-1.935-10.209l-.018-.019A3.86,3.86,0,0,1,407.475,709V697.772l-11.031,3.51.5,9.527C396.2,712.79,396.193,715.749,396.373,718.236Z" transform="translate(-220.668 -292.514)"/><path class="e" d="M396.417,724.271a45.932,45.932,0,0,0,.572,4.608s12.536,8.524,13.539-1c.652-6.208-.822-9.011-1.936-10.209a3,3,0,0,0-3.079-.321c-2.006-.892-4.212.6-6.037,2.522A17.729,17.729,0,0,0,396.417,724.271Z" transform="translate(-220.712 -298.549)"/><path class="c" d="M403.932,718.8s5.516-3.009,6.519,10.53,1.5,12.034,1.5,12.034,5.014,12.034-5.516,10.53-15.544-2.507-15.043-8.524c.3-3.627,1.151-8.893,1.778-12.5a18.387,18.387,0,0,1,4.719-9.545C399.722,719.4,401.926,717.913,403.932,718.8Z" transform="translate(-219.13 -299.005)"/><path class="d" d="M494.056,730.906l5.748,2.773s17.959,2.757,12.263-7.47a41.5,41.5,0,0,1-3.746-9.676,64.448,64.448,0,0,1-1.989-14.347l-15.194,2.12c4.955,6.6,4.327,17.3,3.56,22.907C494.389,729.472,494.056,730.906,494.056,730.906Z" transform="translate(-250.346 -293.895)"/><path class="e" d="M495.384,737.438l5.749,2.772s17.959,2.757,12.263-7.47a41.494,41.494,0,0,1-3.746-9.676c-3.489.671-6.143,5.693-6.143,5.693-2.813,9.767-5.344,7.326-7.479,4.986C495.717,736,495.384,737.438,495.384,737.438Z" transform="translate(-251.674 -300.427)"/><path class="c" d="M502.779,730.1s4.478-8.469,9.445-4.892,2.5,8.686,18.591,13.69,5.456,15.622-4.388,14.811-30.831-4.635-30.831-4.635-5.456-15.622-2.924-15.975S498.7,744.272,502.779,730.1Z" transform="translate(-250.616 -300.822)"/><path class="f" d="M527.114,760.593c6.391.527,13.111-3.764,12.639-8.208,3.054,5.019-4.677,10.7-11.977,10.1-9.844-.811-30.831-4.635-30.831-4.635s-.257-.735-.632-1.888C496.923,756.075,517.418,759.794,527.114,760.593Z" transform="translate(-251.965 -309.6)"/><path class="f" d="M391.422,754.272c.578,4.511,5.581,5.459,15.017,6.807,4.8.686,6.365-1.442,6.653-3.959.314,3.224-.6,6.829-6.653,5.965-10.53-1.5-15.544-2.507-15.043-8.524C391.4,754.466,391.413,754.367,391.422,754.272Z" transform="translate(-219.13 -310.19)"/><path class="g" d="M357.287,468.228,355.623,493.2s-1.332,25.3,8.988,27.3,0-32.291,0-32.291V465.564Z" transform="translate(-207.932 -219.866)"/><path class="h" d="M365.171,337.18l-1.332,3s.333,20.973,0,22.637-4.661,14.648-4.661,15.979-3.329,39.948-3.995,42.278-3.662,9.654-1,10.653,7.657-3,9.654,0,3.662,0,3.662-1,.666-19.974,4.661-25.3,7.657-17.311,8.323-19.641,1.665-35.953,2-36.619-1.332-9.654-1.332-9.654Z" transform="translate(-207.16 -179.7)"/><path class="c" d="M389.456,388.534s-3.995,15.646-6.658,18.642-15.979,25.3-11.984,54.929S381.8,530.35,381.8,530.35s1,13.649-.333,17.311,5.992,61.92,5.992,61.92,10.32,7.99,15.979-2c0,0-1.332-21.638,0-23.636s0-37.951,0-37.951,1-89.55,6.325-85.888S431.4,526.022,431.4,526.022s6.991,23.969,6.658,25.966,5.992,26.965,5.992,26.965,5.992,34.622,8.323,35.288,16.645,1,17.977-2.663l-3.995-31.293s-3.995-35.62-5.992-40.614-5.326-75.9-14.981-96.874c0,0-3.662-33.623-6.325-38.617a29.489,29.489,0,0,1,.366-13.264S393.118,391.2,389.456,388.534Z" transform="translate(-212.47 -195.767)"/><ellipse class="c" cx="27.964" cy="35.454" rx="27.964" ry="35.454" transform="translate(168.83 59.44)"/><path class="g" d="M467.254,291.632l-4.328,9.321-51.267,14.981s-35.62,10.32-39.282-6.325,13.982-18.31,13.982-18.31,6.658-4.661,14.981-9.321a7.193,7.193,0,0,0,3.7-6.761,13.977,13.977,0,0,0-.223-2.37,20.048,20.048,0,0,0-.666-2.67,30.6,30.6,0,0,0-2.81-6.175s21.971-8.655,21.639-3.995a13.252,13.252,0,0,0,.533,4.98,19.607,19.607,0,0,0,1.828,4.038c.373.642.789,1.308,1.252,2.014.6.915,1.282,1.891,2.047,2.949,4.328,5.992,18.643,5.992,18.643,5.992C458.6,278.648,467.254,291.632,467.254,291.632Z" transform="translate(-213.034 -155.125)"/><path class="g" d="M584.527,384.173s23.969,17.644,28.629,17.311,31.958-2,25.633,4.328-34.955,2.33-34.955,2.33l-26.3-16.645Z" transform="translate(-277.376 -194.403)"/><path class="i" d="M436.925,264.986a18.988,18.988,0,0,1-19.362,5.19,30.6,30.6,0,0,0-2.81-6.175s21.972-8.655,21.639-3.995A13.25,13.25,0,0,0,436.925,264.986Z" transform="translate(-226.449 -155.125)"/><circle class="g" cx="18.975" cy="18.975" r="18.975" transform="translate(177.652 75.586)"/><path class="h" d="M385.076,318.643s82.56-18.642,82.892-15.979,3.662,7.99,3.662,7.99l-19.308,21.971s2.33,10.653-2.33,12.983-5.326,19.974-9.654,20.307-54.929-.333-55.262-3,1.332-4.328,0-4.994-3.329-.666-1.664-3.995,1.664-17.311,1.664-17.311L369.43,329.3s-2.146-6.2,1.757-7.263S385.076,318.643,385.076,318.643Z" transform="translate(-212.085 -168.82)"/><path class="h" d="M505.431,313.441h3s8.988,5.992,11.319,11.319,10.653,12.317,12.65,14.315,29.3,20.973,28.963,23.636-7.99,5.326-8.323,8.323,3.329,4.328,1,4.328-16.645-8.323-21.971-11.319-16.312-11.652-17.644-13.982-10.32-6.325-11.319-7.99-16.645-9.321-16.645-9.321Z" transform="translate(-248.881 -172.273)"/><circle class="c" cx="10.653" cy="10.653" r="10.653" transform="translate(158.178 62.769)"/><circle class="c" cx="10.653" cy="10.653" r="10.653" transform="translate(205.117 48.787)"/><ellipse class="c" cx="19.808" cy="12.151" rx="19.808" ry="12.151" transform="translate(179.483 70.093)"/><path class="c" d="M440.335,273.758a50.054,50.054,0,0,1-20.523,3.822,14,14,0,0,1,.223,2.37c.486.02,1.009.03,1.565.03a53.809,53.809,0,0,0,19.987-4.208Z" transform="translate(-228.031 -159.858)"/><rect class="j" width="40.541" height="8.246" transform="translate(559.458 283.275)"/><rect class="b" width="57.033" height="57.033" rx="10.165" transform="translate(335.45 222.119)"/><path class="k" d="M30.9,14.861h0L27.8,18.3h0L18.488,28.614h0a2.893,2.893,0,0,1-4.388,0h0L7.894,21.736h0a3.626,3.626,0,0,1-.909-2.429,3.286,3.286,0,0,1,3.1-3.441,2.941,2.941,0,0,1,2.193,1.01h0l4.013,4.444,7.114-7.885L26.511,10h0A2.95,2.95,0,0,1,28.7,8.991a3.283,3.283,0,0,1,3.1,3.436,3.623,3.623,0,0,1-.909,2.434Z" transform="translate(344.334 232.877)"/></svg>